<?xml version="1.0" encoding="UTF-8" standalone="no"?>
<!DOCTYPE svg PUBLIC "-//W3C//DTD SVG 1.1//EN" "http://www.w3.org/Graphics/SVG/1.1/DTD/svg11.dtd">
<svg width="100%" height="100%" viewBox="0 0 691 685" version="1.1" xmlns="http://www.w3.org/2000/svg" xmlns:xlink="http://www.w3.org/1999/xlink" xml:space="preserve" xmlns:serif="http://www.serif.com/" style="fill-rule:evenodd;clip-rule:evenodd;stroke-linejoin:round;stroke-miterlimit:2;">
    <g transform="matrix(1,0,0,1,-1531.944435,-2387)">
        <g transform="matrix(1.101942,0,0,1.057893,-221.36155,-159.965034)">
            <path d="M1762.106557532989,3055.026722667648C1700.123505140124,3056.856132148196 1630.711414362949,2961.876630905556 1602.835537622714,2833.204841468331C1573.19994492323,2696.410408804918 1601.660690603871,2573.005067358878 1666.351940172259,2557.798728360691C1666.239869061443,2558.81534585309 1666.130683427946,2559.840580552926 1666.024410961294,2560.874309584182C1677.736794293887,2558.253900933616 1690.331373854058,2559.427836564675 1702.026232077066,2565.076240160708C1727.453945943489,2577.357363001468 1764.318214775871,2615.670673236812 1791.890028079294,2647.078076082772C1801.934619116996,2656.792098236789 1818.018843101084,2667.508969012334 1836.901042617592,2674.701366217614C1847.500563185427,2678.738817577173 1858.114207957891,2681.335199193545 1867.807866112604,2682.717115290978C1850.72995062155,2654.741796582415 1840.792954363364,2621.284166014329 1840.792954363364,2585.350685316616C1840.792954363364,2487.2380221245 1914.873927869671,2407.582987685867 2006.120911237282,2407.582987685867C2097.367894604893,2407.582987685867 2171.4488681112,2487.2380221245 2171.4488681112,2585.350685316616C2171.4488681112,2657.524520334858 2131.360708679344,2719.710198756579 2073.840774863194,2747.5466053614C2103.943297967553,2779.631785109696 2123.015799585939,2827.143117887939 2123.015799585939,2880.125138215715C2123.015799585939,2976.655950482543 2059.704307070124,3055.026722667647 1981.722303984307,3055.026722667647C1981.716791148415,3055.026722667647 1981.711278387537,3055.02672286728 1981.705765594848,3055.026722068752L1762.106557532989,3055.026722667648Z" style="fill:rgb(255,194,0);"/>
        </g>
        <g transform="matrix(-0.748467,1.090404,-0.82446,-0.56592,5866.981969,1771.739206)">
            <path d="M2080.797800903761,2562.779027999975C2091.239986366534,2541.256787140907 2110.51767407767,2526.803209218253 2132.552153734568,2526.803209218253C2141.1806139403,2526.803209218253 2149.386342272897,2529.019549148487 2156.804330257077,2533.008786825425C2144.716024061853,2531.659752162633 2133.001717062129,2541.22751539947 2128.861089542862,2557.079744777726C2123.957585909319,2575.85261531349 2134.618251266454,2628.434731070687 2136.533821665353,2637.529758127926L2135.69501387542,2636.200242462758C2130.314491265887,2627.649756718826 2101.131383932764,2581.902128007782 2080.797800903761,2562.779027999975Z" style="fill:rgb(204,43,0);"/>
        </g>
        <g transform="matrix(-0.418635,-0.811531,0.789661,-0.407354,1053.054214,5335.071941)">
            <path d="M2131.105271863017,2447.059434420901C2131.105271863017,2447.059434420901 2133.022923898861,2451.843125136224 2135.956234307975,2459.642591422414C2142.206460180176,2476.261502881579 2153.067982376195,2506.572650991763 2159.814773887375,2533.472949622872C2163.365063591087,2547.628397157154 2165.775958000487,2560.839358613367 2165.775958000488,2570.61368506109C2165.775958000486,2590.278913750406 2150.240544451803,2606.244584414385 2131.105271863018,2606.244584414385C2111.969999274233,2606.244584414385 2096.434585725548,2590.278913750407 2096.434585725548,2570.613685061091C2096.434585725548,2567.422848289124 2096.691515057157,2563.865768876139 2097.161138386651,2560.029148447274C2101.671476652881,2523.181626515331 2125.800691568935,2460.549264561407 2130.36127383245,2448.939909518014C2130.841975963297,2447.716240831726 2131.105271863017,2447.059434420901 2131.105271863017,2447.059434420901ZM2131.105271863017,2447.059434420901C2131.105271863017,2447.059434420901 2130.708179231149,2447.458749608523 2129.96831357535,2448.188210082209C2122.50732385628,2455.544271350893 2080.189031037216,2496.47349474145 2058.717558894391,2500.042953744647C2040.586570303784,2503.057084309663 2023.326798747878,2492.793093889592 2016.342176640263,2476.224053973651C2008.462211744612,2457.531066596443 2013.307047841125,2446.266053253299 2021.117607493071,2435.692985851486C2027.012187027291,2427.71355934456 2035.7816181549,2421.956576643818 2046.155118264353,2420.232065948228C2067.017539300887,2416.763856777383 2117.377337455498,2440.390511317702 2128.78244582375,2445.919746277756C2130.279402993284,2446.645476156705 2131.105271863017,2447.059434420901 2131.105271863017,2447.059434420901Z" style="fill:rgb(255,118,0);"/>
        </g>
        <g transform="matrix(0.967585,0,0,0.967585,63.573469,68.272982)">
            <ellipse cx="1972.177601691975" cy="2578.03194268789" rx="35.713972023803" ry="37.138048124077" style="fill-opacity:0.98;"/>
        </g>
        <g transform="matrix(0.506524,-1.114798,1.007414,0.457733,-1998.806056,3360.043917)">
            <path d="M1621.013816593117,2727.077251466584C1624.481194285842,2720.561908868553 1630.804328737162,2716.562257152813 1637.637210407866,2716.562247222337C1644.47009207857,2716.562237291861 1650.793236023712,2720.561870628302 1654.260629181684,2727.077203147778C1684.022668620482,2783.286504768097 1743.329937086011,2902.796534710964 1743.329937086011,2962.588007652475C1743.329937086011,3022.948542695097 1695.970603221856,3071.953638888845 1637.63718581562,3071.953638888845C1579.303768409384,3071.953638888845 1531.944434545229,3022.948542695097 1531.944434545229,2962.588007652475C1531.944434545229,2902.796534710965 1591.251703010758,2783.286504768097 1621.013816593117,2727.077251466584Z" style="fill:rgb(255,167,0);"/>
        </g>
    </g>
</svg>
