<?xml version="1.0" encoding="UTF-8" standalone="no"?>
<!DOCTYPE svg PUBLIC "-//W3C//DTD SVG 1.1//EN" "http://www.w3.org/Graphics/SVG/1.1/DTD/svg11.dtd">
<svg width="100%" height="100%" viewBox="0 0 3841 3806" version="1.1" xmlns="http://www.w3.org/2000/svg" xmlns:xlink="http://www.w3.org/1999/xlink" xml:space="preserve" xmlns:serif="http://www.serif.com/" style="fill-rule:evenodd;clip-rule:evenodd;stroke-linejoin:round;stroke-miterlimit:2;">
    <g transform="matrix(5.555556,0,0,5.555556,-8510.4446,-13261.111111)">
        <g transform="matrix(1.101942,0,0,1.057893,-221.36155,-159.965034)">
            <path d="M1762.106557532989,3055.026722667648C1700.123505140124,3056.856132148196 1630.711414362949,2961.876630905556 1602.835537622714,2833.204841468331C1573.19994492323,2696.410408804918 1601.333161392906,2576.08064858237 1666.024410961294,2560.874309584182C1665.912339850477,2561.890927076581 1666.130683427946,2559.840580552926 1666.024410961294,2560.874309584182C1677.736794293887,2558.253900933616 1690.331373854058,2559.427836564675 1702.026232077066,2565.076240160708C1727.453945943489,2577.357363001468 1764.318214775871,2615.670673236812 1791.890028079294,2647.078076082772C1801.934619116996,2656.792098236789 1818.018843101084,2667.508969012334 1836.901042617592,2674.701366217614C1847.500563185427,2678.738817577173 1858.114207957891,2681.335199193545 1867.807866112604,2682.717115290978C1850.72995062155,2654.741796582415 1840.792954363364,2621.284166014329 1840.792954363364,2585.350685316616C1840.792954363364,2487.2380221245 1914.873927869671,2407.582987685867 2006.120911237282,2407.582987685867C2097.367894604893,2407.582987685867 2171.4488681112,2487.2380221245 2171.4488681112,2585.350685316616C2171.4488681112,2657.524520334858 2131.360708679344,2719.710198756579 2073.840774863194,2747.5466053614C2103.943297967553,2779.631785109696 2123.015799585939,2827.143117887939 2123.015799585939,2880.125138215715C2123.015799585939,2976.655950482543 2059.704307070124,3055.026722667647 1981.722303984307,3055.026722667647C1981.716791148415,3055.026722667647 1981.711278387537,3055.02672286728 1981.705765594848,3055.026722068752L1762.106557532989,3055.026722667648Z" style="fill:rgb(255,194,0);"/>
        </g>
        <g transform="matrix(0.967585,0,0,0.967585,141.326652,35.118731)">
            <ellipse cx="1972.177601691975" cy="2578.03194268789" rx="35.713972023803" ry="37.138048124077" style="fill-opacity:0.98;"/>
        </g>
        <g transform="matrix(0.506524,-1.114798,1.007414,0.457733,-1998.806056,3360.043917)">
            <path d="M1621.013816593117,2727.077251466584C1624.481194285842,2720.561908868553 1630.804328737162,2716.562257152813 1637.637210407866,2716.562247222337C1644.47009207857,2716.562237291861 1650.793236023712,2720.561870628302 1654.260629181684,2727.077203147778C1684.022668620482,2783.286504768097 1743.329937086011,2902.796534710964 1743.329937086011,2962.588007652475C1743.329937086011,3022.948542695097 1695.970603221856,3071.953638888845 1637.63718581562,3071.953638888845C1579.303768409384,3071.953638888845 1531.944434545229,3022.948542695097 1531.944434545229,2962.588007652475C1531.944434545229,2902.796534710965 1591.251703010758,2783.286504768097 1621.013816593117,2727.077251466584Z" style="fill:rgb(255,167,0);"/>
        </g>
        <g transform="matrix(1,0,0,1,-0.513632,10.786437)">
            <path d="M2092.891680283437,2608.96134381774C2095.203149306006,2608.96134381774 2152.023543947807,2665.135411990457 2178.707752773706,2678.335284533574C2168.064035249608,2686.786372190733 2124.319937974309,2691.022095751848 2124.319937974309,2691.022095751848C2107.036486454822,2670.597044157839 2087.053460697804,2655.688578594275 2092.891680283437,2608.96134381774Z" style="fill:rgb(255,96,0);"/>
            <path d="M2166.864098467915,2519.947771598238C2190.113028415372,2525.993265295267 2217.61400503391,2541.379905680411 2223.632813239911,2570.189486578169C2212.256604204909,2578.437296088817 2091.510685607903,2612.375806352949 2092.891680283437,2608.96134381774C2106.671798307653,2574.890468992515 2128.364719673204,2544.86548238249 2166.864098467915,2519.947771598238Z" style="fill:rgb(255,96,0);"/>
            <path d="M2223.632813239911,2570.189486578169C2219.045937272419,2580.371872724359 2178.707752773706,2607.237400169065 2178.707752773706,2607.237400169065C2185.681154369553,2641.204517232648 2199.589193509377,2659.182804090945 2178.707752773706,2678.335284533574C2149.230135560658,2680.623411831149 2092.976804416114,2619.632053748533 2092.891680283437,2608.96134381774C2119.121333289736,2605.603582154326 2210.687724552761,2574.443807493603 2223.632813239911,2570.189486578169Z" style="fill:rgb(204,43,0);"/>
        </g>
    </g>
</svg>
